Fly_normalized_Motion_pl10
version=1
nRows=24
nColumns=43
inDegrees=yes
endheader
time		pelvis_tilt		pelvis_list		pelvis_rotation		pelvis_tx		pelvis_ty		pelvis_tz		hip_flexion_r		hip_adduction_r		hip_rotation_r		knee_angle_r		ankle_angle_r		subtalar_angle_r		mtp_angle_r		hip_flexion_l		hip_adduction_l		hip_rotation_l		knee_angle_l		ankle_angle_l		subtalar_angle_l		mtp_angle_l		lumbar_extension		lumbar_bending		lumbar_rotation		neck_flexion		neck_lateral_bending		neck_rotation		arm_flex_r		arm_add_r		arm_rot_r		elbow_flex_r		pro_sup_r		wrist_flex_r		wrist_dev_r		hand_finger_flex_r		arm_flex_l		arm_add_l		arm_rot_l		elbow_flex_l		pro_sup_l		wrist_flex_l		wrist_dev_l		hand_finger_flex_l		
0.667424		4.385701		-4.992594		98.716316		-0.020704		1.266760		0.783462		32.767868		-4.734132		-19.952470		-21.796889		-24.596874		-1.245167		21.979846		26.965186		-6.768393		-14.265136		-19.431131		-22.945018		5.340289		13.255389		-24.792327		2.994767		-0.007205		-16.404807		4.949389		-5.343271		-78.411718		-40.140835		-35.933287		74.592938		130.496557		6.386877		-9.475507		-26.872608		-100.137522		-40.894647		-55.882521		95.167881		142.332666		-12.147878		-5.248529		-18.531122		
0.671490		4.266651		-4.966251		98.819472		-0.020314		1.254426		0.775562		32.514689		-4.847517		-20.258416		-21.346417		-24.700267		-1.187478		21.935834		26.807126		-6.604114		-14.199784		-18.583073		-22.835340		5.239223		13.267041		-24.544256		2.823665		-0.040757		-17.118295		4.948019		-5.339558		-79.509390		-38.627139		-35.755310		73.853570		130.812214		6.217988		-9.577675		-26.889804		-100.897197		-39.267693		-55.698333		94.430689		142.547141		-12.317927		-5.373118		-18.604939		
0.675556		4.130044		-4.947581		98.921752		-0.019921		1.241973		0.767702		32.253401		-4.975595		-20.523097		-20.867395		-24.767426		-1.083130		21.901809		26.689739		-6.424057		-14.049373		-17.829834		-22.787745		5.144745		13.280785		-24.300002		2.628256		-0.093645		-17.768028		4.898264		-5.317773		-80.473181		-37.164438		-35.507227		73.021842		131.173586		5.974065		-9.695387		-26.914775		-101.599051		-37.728590		-55.451302		93.636097		142.829898		-12.526386		-5.561612		-18.718611		
0.679621		3.966627		-4.920710		99.052025		-0.019600		1.229424		0.759878		32.000006		-5.160717		-20.767127		-20.444587		-24.842938		-0.919558		21.880388		26.596744		-6.203803		-13.815976		-17.181668		-22.773548		5.026796		13.308960		-24.077078		2.425288		-0.184912		-18.429846		4.856364		-5.301527		-81.291778		-35.744063		-35.195711		72.066456		131.635634		5.595918		-9.853041		-26.949594		-102.162372		-36.297769		-55.161089		92.697801		143.212192		-12.799180		-5.816942		-18.886116		
0.683687		3.775194		-4.910795		99.216366		-0.019389		1.216740		0.752117		31.778020		-5.418660		-21.030982		-20.083962		-24.903565		-0.657387		21.908453		26.571163		-5.931692		-13.441308		-16.661393		-22.837987		4.786153		13.430693		-23.861726		2.213517		-0.316370		-19.025168		4.804493		-5.327382		-81.973534		-34.359265		-34.806969		70.953274		132.438564		4.801226		-10.181120		-26.949055		-102.559769		-34.978739		-54.793978		91.602581		143.837988		-13.260998		-6.211965		-19.147568		
0.687753		3.602971		-4.863684		99.246038		-0.018976		1.203995		0.744406		31.564267		-5.561235		-21.044378		-19.759516		-25.006255		-0.618561		21.904973		26.550834		-5.767615		-13.191569		-16.335618		-22.674993		4.747036		13.497599		-23.713093		1.984865		-0.308569		-19.497246		4.755170		-5.367978		-82.522766		-32.958090		-34.545494		69.947844		132.595412		4.678741		-10.048589		-26.950118		-102.804877		-33.737026		-54.382383		90.625915		143.944639		-13.215740		-6.145220		-19.169048		
0.691818		3.367157		-4.835501		99.322452		-0.018746		1.191060		0.736743		31.401737		-5.839510		-21.174704		-19.559753		-25.099349		-0.523245		21.963969		26.583032		-5.499396		-12.826333		-16.122832		-22.638806		4.515001		13.772161		-23.530087		1.727099		-0.342586		-20.138839		4.668919		-5.477937		-83.061993		-31.674773		-34.057675		68.769617		133.184203		3.822015		-10.284561		-27.096797		-103.006477		-32.730787		-53.890584		89.455988		144.360509		-13.564488		-6.365917		-19.411960		
0.695884		3.200160		-4.753773		99.335189		-0.018313		1.178052		0.729201		31.227177		-5.995598		-21.210268		-19.415292		-25.102452		-0.540305		21.997137		26.648390		-5.371240		-12.584276		-16.116448		-22.491577		4.406796		13.954492		-23.437723		1.505490		-0.330104		-20.592692		4.645151		-5.517481		-83.408931		-30.427332		-33.720494		67.679257		133.449911		3.520316		-10.257469		-27.114496		-103.034807		-31.668702		-53.413976		88.380361		144.523802		-13.561038		-6.319152		-19.464665		
0.699949		3.026971		-4.731463		99.424809		-0.017952		1.164750		0.721610		31.124855		-6.201668		-21.282812		-19.344774		-25.059655		-0.755181		22.067228		26.772663		-5.183986		-12.258590		-16.150835		-22.147029		4.260486		14.371307		-23.241523		1.296146		-0.381903		-21.224328		4.603985		-5.548967		-83.697634		-29.247612		-33.280453		66.406979		133.868139		2.852428		-10.568826		-27.200772		-103.076262		-30.801905		-52.892764		87.201277		144.800864		-13.744126		-6.390844		-19.630175		
0.704015		2.897353		-4.651612		99.438995		-0.017408		1.151398		0.714263		31.040141		-6.332119		-21.339095		-19.388642		-24.968348		-1.030061		22.127651		26.969752		-5.121836		-12.008927		-16.458809		-21.985838		4.190917		14.692780		-23.169833		1.094963		-0.358606		-21.657145		4.618702		-5.552837		-83.831050		-28.123273		-32.936331		65.232215		134.109668		2.554058		-10.721638		-27.188131		-102.891598		-29.911718		-52.401359		86.061514		144.925227		-13.748982		-6.312781		-19.700669		
0.708081		2.760955		-4.512991		99.437788		-0.016818		1.138028		0.707031		30.957205		-6.474834		-21.384210		-19.558051		-24.894710		-1.297436		22.178428		27.164269		-5.085114		-11.785564		-16.923107		-21.893112		4.140211		14.949862		-23.180089		0.894887		-0.318840		-22.107179		4.662530		-5.556612		-83.897188		-27.079600		-32.578877		64.117752		134.299685		2.374273		-10.815850		-27.164270		-102.591499		-29.124330		-51.914140		84.909747		145.012637		-13.692428		-6.195932		-19.743793		
0.712146		2.654477		-4.560041		99.580489		-0.016399		1.124172		0.699910		31.101057		-6.674057		-21.410606		-19.824369		-24.756671		-2.057666		22.335849		27.609400		-4.966190		-11.370635		-17.465523		-21.696144		3.984188		15.619711		-23.004364		0.752480		-0.399764		-22.420393		4.668221		-5.548720		-83.764484		-26.070258		-32.186886		62.566351		134.755174		1.566511		-11.638720		-27.240867		-102.164066		-28.499200		-51.313124		83.500284		145.247191		-14.147039		-6.276374		-20.078068		
0.716212		2.549774		-4.475362		99.640721		-0.015820		1.110500		0.692851		31.150320		-6.829427		-21.418671		-20.178547		-24.683983		-2.468241		22.479733		27.943367		-4.925180		-11.160938		-18.119801		-21.589966		3.868490		16.168159		-23.004245		0.601187		-0.435496		-22.724710		4.714713		-5.533149		-83.513481		-25.161930		-31.824379		61.220308		135.049410		1.146038		-11.979449		-27.218659		-101.590950		-27.911620		-50.725239		82.169853		145.347246		-14.298157		-6.147848		-20.230349		
0.720278		2.445719		-4.341920		99.692530		-0.015267		1.096793		0.685823		31.187094		-6.993345		-21.431243		-20.623188		-24.599905		-2.810949		22.616971		28.245668		-4.900614		-11.010005		-18.850779		-21.457068		3.771396		16.681724		-23.065407		0.458071		-0.472581		-23.032561		4.766920		-5.517513		-83.166818		-24.339526		-31.480474		59.901169		135.291105		0.789212		-12.221036		-27.202554		-100.924340		-27.372458		-50.135816		80.851993		145.413853		-14.409584		-5.967124		-20.356896		
0.724343		2.364296		-4.291297		99.758515		-0.014888		1.082775		0.678840		31.340176		-7.176745		-21.524338		-21.153107		-24.367906		-3.193407		22.822233		28.667269		-4.859500		-10.812388		-19.678756		-21.042153		3.759342		17.527943		-23.077198		0.356057		-0.550232		-23.053389		4.752485		-5.449690		-82.611876		-23.647398		-31.059904		58.211843		135.593411		-0.096900		-12.881392		-27.386708		-100.059306		-26.856855		-49.375438		79.348620		145.443415		-15.075038		-5.738883		-20.707801		
0.728409		2.294254		-4.075091		99.806056		-0.014477		1.068937		0.672008		31.410421		-7.351489		-21.607062		-21.872538		-24.228290		-3.358863		22.954062		28.982589		-4.879213		-10.660499		-20.638802		-20.784897		3.789587		18.115740		-23.272519		0.279106		-0.589040		-23.268250		4.816639		-5.432811		-82.059219		-23.035247		-30.700458		56.865528		135.765347		-0.599937		-13.172215		-27.494302		-99.180021		-26.343244		-48.742168		78.071043		145.299480		-15.473590		-5.453901		-20.827831		
0.732475		2.211915		-3.836599		99.820704		-0.014016		1.054965		0.665087		31.480251		-7.532160		-21.732488		-22.679964		-24.057037		-3.491263		23.077832		29.283762		-4.904077		-10.462697		-21.656167		-20.489227		3.847209		18.700011		-23.485828		0.195638		-0.633800		-23.434690		4.848832		-5.408122		-81.427238		-22.491824		-30.378162		55.503157		135.911803		-1.098609		-13.421845		-27.616888		-98.219356		-25.836056		-48.174937		76.791789		145.039376		-15.948055		-5.122102		-20.904505		
0.736540		2.123035		-3.636039		99.935309		-0.013881		1.040842		0.658520		31.645593		-7.812001		-21.899267		-23.627665		-23.699803		-3.601975		23.213238		29.683066		-4.825543		-10.108318		-22.762891		-19.952890		3.978266		19.315415		-23.767857		0.168688		-0.802617		-23.183465		4.808130		-5.356580		-80.526869		-22.061764		-30.025568		53.900718		136.079907		-1.811834		-13.783629		-27.872848		-97.021248		-25.334288		-47.417388		75.399106		144.260490		-17.017479		-4.783804		-20.921428		
0.740606		2.080116		-3.389962		100.064114		-0.013496		1.026747		0.651989		31.795095		-8.040802		-22.085853		-24.631144		-23.504187		-3.674910		23.426441		30.051171		-4.812354		-9.807749		-23.861220		-19.686820		4.025049		20.264353		-24.073341		0.174763		-0.931366		-23.232819		4.759634		-5.345314		-79.585899		-21.615896		-29.719053		52.468612		136.232377		-2.491501		-14.018404		-27.975682		-95.853407		-25.008689		-46.643260		74.002689		142.917024		-18.425633		-4.596814		-20.306227		
0.744672		2.023295		-3.198926		100.272672		-0.013472		1.012440		0.645540		32.008201		-8.351615		-22.211365		-25.682944		-23.245094		-3.829169		23.866730		30.494946		-4.693537		-9.460401		-25.002057		-19.387947		4.010010		22.167107		-24.371011		0.243637		-1.169583		-22.930434		4.576626		-5.375152		-78.427100		-21.216398		-29.509018		50.828580		136.413178		-3.379480		-14.107208		-27.857210		-94.492936		-24.796338		-45.523122		72.327709		140.400800		-20.949702		-4.622769		-18.406601		
0.748737		1.834398		-2.902794		100.254109		-0.013220		0.998012		0.639336		32.305170		-8.718732		-22.148119		-27.044014		-22.996312		-4.050785		24.055354		30.875150		-4.561519		-9.173018		-26.358162		-19.082275		4.206870		22.681111		-24.822114		0.113362		-1.262462		-22.600359		4.497128		-5.421327		-77.439022		-20.920331		-29.324864		49.680885		136.598893		-3.847529		-14.017802		-27.950932		-93.137891		-24.486066		-44.829156		71.100366		139.669636		-21.959336		-4.456563		-18.138011		
0.752803		1.739444		-2.797870		100.319731		-0.012961		0.983346		0.633192		32.778319		-9.026548		-22.023694		-28.319271		-22.806302		-4.249279		25.123107		31.428879		-4.472830		-9.087049		-27.608341		-18.911358		4.252081		25.421671		-25.057798		0.111485		-1.326587		-22.550980		4.211242		-5.526906		-76.209462		-20.525031		-29.167809		48.138641		137.081624		-5.166618		-14.065502		-27.393839		-91.579245		-24.651823		-43.247431		69.203474		136.445051		-25.783864		-5.030452		-15.015883		
0.756869		1.558200		-2.465934		100.308485		-0.012869		0.968820		0.627279		33.088458		-9.373458		-21.814976		-29.746996		-22.518937		-4.321851		25.270829		31.817526		-4.353493		-8.984781		-29.123802		-18.443724		4.364481		25.704385		-25.628523		0.036799		-1.443490		-22.024516		4.099540		-5.513052		-74.961241		-20.303954		-29.224607		47.095088		137.098121		-5.253020		-13.617578		-27.363262		-90.014861		-24.349909		-42.664758		68.256166		136.378521		-25.844020		-4.742732		-14.880769		
0.760934		1.370271		-2.292321		100.237655		-0.012610		0.953828		0.621483		33.680782		-9.737236		-21.467362		-31.373742		-22.039950		-3.985998		25.744925		32.404514		-4.274894		-8.982303		-30.750320		-17.982293		4.703952		26.533155		-26.047569		-0.068716		-1.451771		-21.474062		3.815267		-5.596258		-73.732182		-20.051663		-29.201723		46.012526		137.302983		-6.049419		-13.470125		-27.319693		-88.293119		-24.301182		-41.735863		66.971194		136.078782		-27.047502		-4.771651		-14.782033		
